<svg xmlns="http://www.w3.org/2000/svg" xmlns:xlink="http://www.w3.org/1999/xlink" viewBox="0 0 1679.16 1083.83"><defs><style>.cls-1,.cls-3{fill:none;}.cls-2{fill:#2a307d;}.cls-3{stroke:#e01667;stroke-width:0.72px;}.cls-13,.cls-4{font-size:24px;font-family:SourceCodePro-Regular, Source Code Pro;}.cls-4{fill:#333;letter-spacing:0.05em;}.cls-5{fill:url(#_10_lpi_10_3);}.cls-6{fill:url(#_10_dpi_20_5);}.cls-11,.cls-16,.cls-20,.cls-7{font-size:36px;font-family:Lato-Bold, Lato;font-weight:700;}.cls-17,.cls-7{letter-spacing:0.2em;}.cls-8{font-size:160px;font-family:Lato-Black, Lato;}.cls-9{letter-spacing:-0.02em;}.cls-10{letter-spacing:0em;}.cls-11,.cls-18{letter-spacing:0.2em;}.cls-12,.cls-16{letter-spacing:0.18em;}.cls-13{letter-spacing:0.05em;}.cls-14{fill:#001489;}.cls-15{fill:#e11667;}.cls-19{letter-spacing:0.17em;}.cls-20{letter-spacing:0.2em;}</style><pattern id="_10_lpi_10_3" data-name="10 lpi 10% 3" width="72" height="72" patternTransform="matrix(-0.56, 0.56, 0.56, 0.56, -1041.93, 688.97)" patternUnits="userSpaceOnUse" viewBox="0 0 72 72"><rect class="cls-1" width="72" height="72"/><line class="cls-3" x1="71.75" y1="68.4" x2="144.25" y2="68.4"/><line class="cls-3" x1="71.75" y1="54" x2="144.25" y2="54"/><line class="cls-3" x1="71.75" y1="39.6" x2="144.25" y2="39.6"/><line class="cls-3" x1="71.75" y1="25.2" x2="144.25" y2="25.2"/><line class="cls-3" x1="71.75" y1="10.8" x2="144.25" y2="10.8"/><line class="cls-3" x1="71.75" y1="61.2" x2="144.25" y2="61.2"/><line class="cls-3" x1="71.75" y1="46.8" x2="144.25" y2="46.8"/><line class="cls-3" x1="71.75" y1="32.4" x2="144.25" y2="32.4"/><line class="cls-3" x1="71.75" y1="18" x2="144.25" y2="18"/><line class="cls-3" x1="71.75" y1="3.6" x2="144.25" y2="3.6"/><line class="cls-3" x1="-0.25" y1="68.4" x2="72.25" y2="68.4"/><line class="cls-3" x1="-0.25" y1="54" x2="72.25" y2="54"/><line class="cls-3" x1="-0.25" y1="39.6" x2="72.25" y2="39.6"/><line class="cls-3" x1="-0.25" y1="25.2" x2="72.25" y2="25.2"/><line class="cls-3" x1="-0.25" y1="10.8" x2="72.25" y2="10.8"/><line class="cls-3" x1="-0.25" y1="61.2" x2="72.25" y2="61.2"/><line class="cls-3" x1="-0.25" y1="46.8" x2="72.25" y2="46.8"/><line class="cls-3" x1="-0.25" y1="32.4" x2="72.25" y2="32.4"/><line class="cls-3" x1="-0.25" y1="18" x2="72.25" y2="18"/><line class="cls-3" x1="-0.25" y1="3.6" x2="72.25" y2="3.6"/><line class="cls-3" x1="-72.25" y1="68.4" x2="0.25" y2="68.4"/><line class="cls-3" x1="-72.25" y1="54" x2="0.25" y2="54"/><line class="cls-3" x1="-72.25" y1="39.6" x2="0.25" y2="39.6"/><line class="cls-3" x1="-72.25" y1="25.2" x2="0.25" y2="25.2"/><line class="cls-3" x1="-72.25" y1="10.8" x2="0.25" y2="10.8"/><line class="cls-3" x1="-72.25" y1="61.2" x2="0.25" y2="61.2"/><line class="cls-3" x1="-72.25" y1="46.8" x2="0.25" y2="46.8"/><line class="cls-3" x1="-72.25" y1="32.4" x2="0.25" y2="32.4"/><line class="cls-3" x1="-72.25" y1="18" x2="0.25" y2="18"/><line class="cls-3" x1="-72.25" y1="3.6" x2="0.25" y2="3.6"/></pattern><pattern id="_10_dpi_20_5" data-name="10 dpi 20% 5" width="28.8" height="28.8" patternTransform="matrix(-0.56, 0.56, 0.56, 0.56, -44.59, 259.44)" patternUnits="userSpaceOnUse" viewBox="0 0 28.8 28.8"><rect class="cls-1" width="28.8" height="28.8"/><path class="cls-2" d="M28.8,30.24a1.44,1.44,0,1,0-1.44-1.44A1.44,1.44,0,0,0,28.8,30.24Z"/><path class="cls-2" d="M14.4,30.24A1.44,1.44,0,1,0,13,28.8,1.44,1.44,0,0,0,14.4,30.24Z"/><path class="cls-2" d="M28.8,15.84a1.44,1.44,0,1,0-1.44-1.44A1.44,1.44,0,0,0,28.8,15.84Z"/><path class="cls-2" d="M14.4,15.84A1.44,1.44,0,1,0,13,14.4,1.44,1.44,0,0,0,14.4,15.84Z"/><path class="cls-2" d="M7.2,23A1.44,1.44,0,1,0,5.76,21.6,1.44,1.44,0,0,0,7.2,23Z"/><path class="cls-2" d="M21.6,23a1.44,1.44,0,1,0-1.44-1.44A1.44,1.44,0,0,0,21.6,23Z"/><path class="cls-2" d="M7.2,8.64A1.44,1.44,0,1,0,5.76,7.2,1.44,1.44,0,0,0,7.2,8.64Z"/><path class="cls-2" d="M21.6,8.64A1.44,1.44,0,1,0,20.16,7.2,1.44,1.44,0,0,0,21.6,8.64Z"/><path class="cls-2" d="M0,30.24A1.44,1.44,0,0,0,1.44,28.8,1.45,1.45,0,0,0,0,27.36,1.44,1.44,0,0,0-1.44,28.8,1.43,1.43,0,0,0,0,30.24Z"/><path class="cls-2" d="M0,15.84A1.44,1.44,0,0,0,1.44,14.4,1.45,1.45,0,0,0,0,13,1.44,1.44,0,0,0-1.44,14.4,1.43,1.43,0,0,0,0,15.84Z"/><path class="cls-2" d="M28.8,1.44A1.45,1.45,0,0,0,30.24,0,1.45,1.45,0,0,0,28.8-1.44,1.44,1.44,0,0,0,27.36,0,1.44,1.44,0,0,0,28.8,1.44Z"/><path class="cls-2" d="M14.4,1.44A1.45,1.45,0,0,0,15.84,0,1.45,1.45,0,0,0,14.4-1.44,1.44,1.44,0,0,0,13,0,1.44,1.44,0,0,0,14.4,1.44Z"/><path class="cls-2" d="M0,1.44A1.45,1.45,0,0,0,1.44,0,1.45,1.45,0,0,0,0-1.44,1.44,1.44,0,0,0-1.44,0,1.44,1.44,0,0,0,0,1.44Z"/></pattern></defs><title>5-coloursandpatterns</title><g id="Layer_2" data-name="Layer 2"><g id="Layer_1-2" data-name="Layer 1"><g id="The_Colours_Patterns" data-name="The Colours &amp; Patterns"><text class="cls-4" transform="translate(0.55 1002.23)">RBG<tspan x="0" y="36">HEX/HTML</tspan><tspan x="0" y="72">CMYK</tspan></text><text class="cls-4" transform="translate(192.55 1002.23)">0 20 137<tspan x="0" y="36">001489</tspan><tspan x="0" y="72">100 89 0 0</tspan></text><circle class="cls-5" cx="1520.97" cy="741.53" r="80"/><circle class="cls-6" cx="1040.97" cy="741.53" r="80"/><g id="Final_Logo_Title" data-name="Final Logo Title"><text class="cls-7" transform="translate(12.59 31.01)">THE</text><text class="cls-8" transform="translate(2.73 178.46)">Colours &amp; <tspan class="cls-9" x="743.02" y="0">P</tspan><tspan class="cls-10" x="841.1" y="0">atterns</tspan></text></g><text class="cls-11" transform="translate(320.97 304.05)">On <tspan class="cls-12" x="77.8" y="0">P</tspan><tspan x="106.6" y="0">atterns &amp; Colours</tspan></text><text class="cls-13" transform="translate(320.97 390.14)">I chose bold colours because of the <tspan x="0" y="36" xml:space="preserve">versitility in their usage.  In blocks, </tspan><tspan x="0" y="72" xml:space="preserve">they’re shocking.  In fine patterns, they </tspan><tspan x="0" y="108">bring in the attention of the viewer to </tspan><tspan x="0" y="144">the subtle, and curated detail.</tspan></text><ellipse class="cls-14" cx="80" cy="741.53" rx="80" ry="78.08"/><circle class="cls-15" cx="560.66" cy="741.53" r="80"/><text class="cls-16" transform="translate(1.97 882.78)">P<tspan class="cls-17" x="28.8" y="0">antone </tspan><tspan class="cls-18"><tspan x="0" y="43.2">Refl</tspan><tspan class="cls-19" x="86.63" y="43.2">e</tspan><tspan x="111.99" y="43.2">x Blue C</tspan></tspan></text><text class="cls-4" transform="translate(480.66 1002.23)">RBG<tspan x="0" y="36">HEX/HTML</tspan><tspan x="0" y="72">CMYK</tspan></text><text class="cls-4" transform="translate(672.66 1002.23)">227 28 121<tspan x="0" y="36">E31C79</tspan><tspan x="0" y="72">0 92 18 0</tspan></text><text class="cls-16" transform="translate(482.08 882.78)">P<tspan class="cls-17" x="28.8" y="0">antone </tspan><tspan class="cls-17"><tspan x="0" y="43.2">213 C</tspan></tspan></text><text class="cls-20" transform="translate(960.97 882.78)">10 dpi 20%</text><text class="cls-20" transform="translate(1440.97 882.77)">10 lpi 10%</text></g></g></g></svg>