<svg id="Layer_1" data-name="Layer 1" xmlns="http://www.w3.org/2000/svg"
  shape-rendering="geometricPrecision" viewBox="0 0 100 100"><defs><style>.cls-1{fill:#001489;}</style></defs><title>Artboard 1</title><g id="Logo"><path class="cls-1" d="M50.13,99.88a50,50,0,1,1,50-50A50.06,50.06,0,0,1,50.13,99.88Zm0-97.58A47.58,47.58,0,1,0,97.71,49.88,47.63,47.63,0,0,0,50.13,2.3Z"/><path class="cls-1" d="M64.77,48.34a11,11,0,0,0-.56-5.51,12.59,12.59,0,0,0-2.94-4.6A13.3,13.3,0,0,0,56.18,35a14.61,14.61,0,0,0-5.77-.81,15.9,15.9,0,0,0-5.76,1.46,17.13,17.13,0,0,0-5.06,3.52,17.69,17.69,0,0,0-3.67,5.2,15.66,15.66,0,0,0-1.44,5.71,14.21,14.21,0,0,0,.87,5.67,14.9,14.9,0,0,0,8.76,8.57,14.42,14.42,0,0,0,6.24.6l.39,4.45a15.83,15.83,0,0,1-8.05-.82,20.19,20.19,0,0,1-7-4.71,19.86,19.86,0,0,1-4.38-6.53,19,19,0,0,1-1.42-7.38,19.47,19.47,0,0,1,1.59-7.44,21.42,21.42,0,0,1,4.67-6.78,21.81,21.81,0,0,1,6.63-4.6,19.13,19.13,0,0,1,21.51,4.14,20.54,20.54,0,0,1,4.32,6.32,13.82,13.82,0,0,1,1,7.55Z"/><path class="cls-1" d="M42.77,50.62a5.43,5.43,0,0,0,.28,2.75,6.13,6.13,0,0,0,1.47,2.3,6.48,6.48,0,0,0,2.54,1.62A7.32,7.32,0,0,0,50,57.7,8.05,8.05,0,0,0,52.83,57a8.79,8.79,0,0,0,2.53-1.76,8.92,8.92,0,0,0,1.83-2.6,7.88,7.88,0,0,0,.72-2.86,7.28,7.28,0,0,0-4.81-7.12,7.4,7.4,0,0,0-3.13-.3l-.19-2.22a7.88,7.88,0,0,1,4,.41,10.51,10.51,0,0,1,5.7,5.62,9.65,9.65,0,0,1,.71,3.69,9.88,9.88,0,0,1-.8,3.72,11.4,11.4,0,0,1-5.65,5.69,9.52,9.52,0,0,1-3.7.83,9.62,9.62,0,0,1-3.71-.67A9.75,9.75,0,0,1,43,57.17,10.33,10.33,0,0,1,40.86,54a6.94,6.94,0,0,1-.51-3.78Z"/></g></svg>